<?xml version="1.0" encoding="UTF-8"?>
<svg version="1.1" xmlns="http://www.w3.org/2000/svg" width="900" height="2360">
<path d="M0 0 C1.04837036 -0.00143509 1.04837036 -0.00143509 2.11791992 -0.00289917 C3.59391368 -0.00357891 5.06991045 -0.00173895 6.54589844 0.00244141 C8.80410481 0.00779261 11.0621123 0.00248952 13.3203125 -0.00390625 C14.75520877 -0.00324543 16.19010492 -0.00196419 17.625 0 C19.58373047 0.00169189 19.58373047 0.00169189 21.58203125 0.00341797 C24.8125 0.1328125 24.8125 0.1328125 27.8125 1.1328125 C29.46855284 1.36818071 31.12976351 1.56816807 32.79296875 1.74609375 C44.75984568 3.09333874 56.23116637 4.77763202 67.8125 8.1328125 C67.8125 8.7928125 67.8125 9.4528125 67.8125 10.1328125 C69.05 10.1946875 70.2875 10.2565625 71.5625 10.3203125 C86.46966711 11.98447738 104.06432578 22.96562067 114.8125 33.1328125 C114.8125 33.7928125 114.8125 34.4528125 114.8125 35.1328125 C115.39515625 35.23722656 115.9778125 35.34164063 116.578125 35.44921875 C119.14895423 36.23574867 120.5465058 37.30847141 122.5625 39.0703125 C123.17609375 39.59496094 123.7896875 40.11960937 124.421875 40.66015625 C125.8125 42.1328125 125.8125 42.1328125 125.8125 44.1328125 C126.70195313 44.5040625 126.70195313 44.5040625 127.609375 44.8828125 C130.1468262 46.32250113 131.35294102 47.78432743 133.0625 50.1328125 C133.58328125 50.8340625 134.1040625 51.5353125 134.640625 52.2578125 C135.8125 54.1328125 135.8125 54.1328125 135.8125 56.1328125 C136.8025 56.4628125 137.7925 56.7928125 138.8125 57.1328125 C139.5 59.1953125 139.5 59.1953125 139.8125 61.1328125 C140.4725 61.1328125 141.1325 61.1328125 141.8125 61.1328125 C143.3203125 63.21484375 143.3203125 63.21484375 144.9375 65.9453125 C145.47632813 66.83863281 146.01515625 67.73195313 146.5703125 68.65234375 C147.8125 71.1328125 147.8125 71.1328125 147.8125 74.1328125 C148.4725 74.1328125 149.1325 74.1328125 149.8125 74.1328125 C151.26234667 77.08524406 152.69495923 80.04574355 154.125 83.0078125 C154.52912109 83.83023437 154.93324219 84.65265625 155.34960938 85.5 C157.7682564 90.53393201 159.6767743 95.49192304 161.17456055 100.87402344 C161.80849293 103.11862444 162.54005051 105.30751781 163.3125 107.5078125 C166.3963761 116.77558673 168.19690553 125.90962544 169.16625977 135.609375 C169.22985595 139.17277362 169.22985595 139.17277362 170.8125 142.1328125 C176.70153061 187.35475128 176.70153061 187.35475128 169.8125 201.1328125 C169.54797401 202.72611599 169.32668718 204.32673001 169.12890625 205.9296875 C168.94424805 207.36828125 168.94424805 207.36828125 168.75585938 208.8359375 C168.50393618 210.85132303 168.25390543 212.86694611 168.00585938 214.8828125 C167.36177814 219.87527638 166.57930506 224.39486334 164.8125 229.1328125 C164.2599992 231.08658344 163.70785969 233.04046634 163.1628418 234.99633789 C160.70886709 243.72945404 157.61196104 251.89411864 153.8125 260.1328125 C153.1525 260.1328125 152.4925 260.1328125 151.8125 260.1328125 C151.71839844 260.84308594 151.62429688 261.55335938 151.52734375 262.28515625 C150.68875695 265.62575614 149.28647579 267.83803372 147.375 270.6953125 C144.86337199 274.44890299 144.86337199 274.44890299 142.71484375 278.41015625 C141.8125 280.1328125 141.8125 280.1328125 139.8125 281.1328125 C138.67899466 283.14951077 138.67899466 283.14951077 137.8125 285.1328125 C137.1525 285.1328125 136.4925 285.1328125 135.8125 285.1328125 C135.43931641 286.46892578 135.43931641 286.46892578 135.05859375 287.83203125 C131.45368936 297.38107267 121.62101437 304.05952355 113.8125 310.1328125 C112.99136719 310.79667969 112.17023438 311.46054688 111.32421875 312.14453125 C107.30985115 315.36277217 103.52268864 317.99181766 98.8125 320.1328125 C97.45125 320.968125 97.45125 320.968125 96.0625 321.8203125 C93.8125 323.1328125 93.8125 323.1328125 91.8125 323.1328125 C91.8125 323.7928125 91.8125 324.4528125 91.8125 325.1328125 C89.31367273 326.23969594 86.81350271 327.34336361 84.3125 328.4453125 C83.61640625 328.75404297 82.9203125 329.06277344 82.203125 329.38085938 C77.46163884 331.46623523 72.69036663 333.38996709 67.8125 335.1328125 C66.74805664 335.51796021 66.74805664 335.51796021 65.66210938 335.91088867 C60.12071552 337.84538975 54.571446 339.15032289 48.8125 340.2578125 C47.97460938 340.42667969 47.13671875 340.59554688 46.2734375 340.76953125 C37.53280677 342.48789054 28.99569112 343.28903779 20.08984375 343.30078125 C19.18609512 343.30410965 18.2823465 343.30743805 17.35121155 343.31086731 C15.4477692 343.31589997 13.54431814 343.31827678 11.64086914 343.31811523 C8.7819092 343.32028825 5.92334438 343.33844639 3.06445312 343.35742188 C-22.59653024 343.43633978 -47.04024969 338.9465099 -70.17578125 327.5859375 C-73.13345684 326.08002473 -73.13345684 326.08002473 -76.1875 325.1328125 C-76.1875 324.4728125 -76.1875 323.8128125 -76.1875 323.1328125 C-76.97125 322.9471875 -77.755 322.7615625 -78.5625 322.5703125 C-82.75629393 320.90725629 -85.95802742 318.63918416 -89.59375 316 C-92.01861561 314.25438891 -94.48781745 312.62398328 -97 311.0078125 C-100.49574485 308.68546452 -103.31993784 306.22095636 -106.1875 303.1328125 C-107.54130986 301.81994447 -108.89550793 300.50747669 -110.25 299.1953125 C-113.38869961 296.06839037 -115.80366379 292.87884084 -118.1875 289.1328125 C-118.826875 288.5140625 -119.46625 287.8953125 -120.125 287.2578125 C-123.12094207 284.17108431 -127.1875 279.60377226 -127.1875 275.1328125 C-127.8475 275.1328125 -128.5075 275.1328125 -129.1875 275.1328125 C-138.78353028 258.58629508 -144.64730738 243.23728297 -148.63842773 224.52685547 C-149.09966705 222.51577821 -149.67036849 220.53024898 -150.265625 218.5546875 C-151.41070879 214.30429174 -151.84244112 210.13109643 -152.25 205.7578125 C-152.29279792 200.52757613 -152.29279792 200.52757613 -154.1875 196.1328125 C-154.58750418 192.10539739 -154.66582426 188.05140233 -154.8125 184.0078125 C-154.88005493 182.20123169 -154.88005493 182.20123169 -154.94897461 180.3581543 C-155.3101235 168.91326342 -154.91826622 157.55497017 -154.1875 146.1328125 C-153.5275 146.1328125 -152.8675 146.1328125 -152.1875 146.1328125 C-152.21070313 145.47796875 -152.23390625 144.823125 -152.2578125 144.1484375 C-152.40042763 136.93618661 -151.56977343 130.20462212 -150.1875 123.1328125 C-149.5275 123.1328125 -148.8675 123.1328125 -148.1875 123.1328125 C-148.24292969 122.17890625 -148.29835938 121.225 -148.35546875 120.2421875 C-148.34934253 115.36571951 -146.94661011 111.00322402 -145.5 106.3828125 C-145.22816895 105.49754883 -144.95633789 104.61228516 -144.67626953 103.70019531 C-142.65193748 97.25967596 -140.27145566 91.14601033 -137.1875 85.1328125 C-136.79175781 84.32972656 -136.39601563 83.52664063 -135.98828125 82.69921875 C-135.06842026 80.8369037 -134.13035112 78.98359432 -133.1875 77.1328125 C-132.5275 77.1328125 -131.8675 77.1328125 -131.1875 77.1328125 C-131.043125 76.5346875 -130.89875 75.9365625 -130.75 75.3203125 C-130.3002561 73.57130846 -129.75857659 71.84604227 -129.1875 70.1328125 C-128.5275 70.1328125 -127.8675 70.1328125 -127.1875 70.1328125 C-126.92453125 69.39804688 -126.6615625 68.66328125 -126.390625 67.90625 C-124.43727516 63.40339809 -121.27999513 59.90681384 -118.1875 56.1328125 C-117.61902344 55.42769531 -117.05054688 54.72257812 -116.46484375 53.99609375 C-115.09041177 52.33124125 -113.64477842 50.7256517 -112.1875 49.1328125 C-111.5275 49.1328125 -110.8675 49.1328125 -110.1875 49.1328125 C-109.93871094 48.54628906 -109.68992187 47.95976563 -109.43359375 47.35546875 C-108.01338804 44.82224917 -106.47566254 43.42295897 -104.25 41.5703125 C-101.30443957 39.10091117 -101.30443957 39.10091117 -98.55859375 36.41796875 C-97.1875 35.1328125 -97.1875 35.1328125 -95.1875 35.1328125 C-95.1875 34.4728125 -95.1875 33.8128125 -95.1875 33.1328125 C-82.81685678 22.40815923 -66.36748577 12.67419618 -50.25390625 9.58984375 C-48.18236636 9.13167708 -46.34257399 8.48315014 -44.375 7.6953125 C-35.23184393 4.15256318 -25.94826735 2.71102028 -16.24267578 1.77905273 C-10.64347721 1.23933429 -5.66167145 0.00489039 0 0 Z " fill="#000002" transform="translate(724.1875,1370.8671875)"/>
<path d="M0 0 C0 51.81 0 103.62 0 157 C4.62 153.7 9.24 150.4 14 147 C28.15960497 138.81397837 44.26725625 135.06842221 60.375 133.4296875 C63.94620686 133.13035295 63.94620686 133.13035295 67 132 C69.26013584 131.90451399 71.52300522 131.86926464 73.78515625 131.8671875 C74.77049599 131.86575241 74.77049599 131.86575241 75.77574158 131.86428833 C77.16177466 131.86360887 78.54781095 131.86544686 79.93383789 131.86962891 C82.05817783 131.87498909 84.18230717 131.8696717 86.30664062 131.86328125 C87.6536463 131.86394191 89.00065185 131.86522281 90.34765625 131.8671875 C91.57492432 131.86831543 92.80219238 131.86944336 94.06665039 131.87060547 C97 132 97 132 99 133 C100.98774967 133.1939268 102.97612071 133.38305367 104.96679688 133.54418945 C120.03920109 134.79972668 134.49733363 138.01813348 148 145 C148.82371094 145.38929688 149.64742187 145.77859375 150.49609375 146.1796875 C164.00001348 152.62617648 175.53073152 161.354184 186 172 C186.886875 172.845625 187.77375 173.69125 188.6875 174.5625 C191.71472158 177.75335518 193 179.58950347 193 184 C193.99 184.33 194.98 184.66 196 185 C196.33 186.65 196.66 188.3 197 190 C197.66 190 198.32 190 199 190 C200.4606285 192.64738916 201 193.89448334 201 197 C201.66 197 202.32 197 203 197 C203.39832031 198.134375 203.79664063 199.26875 204.20703125 200.4375 C204.74214459 201.95834843 205.27730327 203.47918091 205.8125 205 C206.07353516 205.74378906 206.33457031 206.48757813 206.60351562 207.25390625 C206.99506836 208.36572266 206.99506836 208.36572266 207.39453125 209.5 C207.65911133 210.25144287 207.92369141 211.00288574 208.19628906 211.77709961 C208.96012955 213.88972647 209.77512592 215.97610635 210.59765625 218.06640625 C212.06699868 221.96375626 212.91608941 225.84112461 213.625 229.9375 C213.74617188 230.58912109 213.86734375 231.24074219 213.9921875 231.91210938 C215.47001801 240.096399 216.14924696 248.1519487 216.12698364 256.46557617 C216.12854363 257.3750255 216.13010362 258.28447483 216.13171089 259.22148323 C216.13567501 262.2453286 216.13254921 265.26912308 216.12939453 268.29296875 C216.13075053 270.46998626 216.13253158 272.64700354 216.13470459 274.82402039 C216.13925309 280.71800044 216.13750056 286.61196295 216.1343255 292.5059433 C216.13179114 298.67274523 216.13414221 304.83954567 216.13571167 311.00634766 C216.13752912 321.35270457 216.13513703 331.69905433 216.13037109 342.04541016 C216.12491778 354.02265161 216.12670057 365.99986842 216.1321975 377.97710896 C216.13672701 388.25662793 216.13738033 398.53614178 216.13475883 408.81566143 C216.13319664 414.95746324 216.13300096 421.09925705 216.13629532 427.24105835 C216.13917206 433.0063183 216.13720202 438.77155618 216.13140106 444.53681374 C216.13007289 446.65852636 216.13046853 448.78024083 216.13266373 450.90195274 C216.13537272 453.78475836 216.13199735 456.66749201 216.12698364 459.55029297 C216.12921436 460.40114062 216.13144509 461.25198828 216.13374341 462.12861919 C216.1141506 467.8858494 216.1141506 467.8858494 215 469 C212.51046303 469.10033866 210.04865047 469.13617943 207.55859375 469.12939453 C206.77976837 469.13114685 206.00094299 469.13289917 205.19851685 469.13470459 C202.61148889 469.13912349 200.02452871 469.13618499 197.4375 469.1328125 C195.64770494 469.13348553 193.85790998 469.13445554 192.06811523 469.13571167 C188.31200289 469.13718869 184.55591428 469.13503394 180.79980469 469.13037109 C175.97399507 469.1246738 171.14824105 469.12795278 166.32243347 469.13394356 C162.62511777 469.13754905 158.92781536 469.13641064 155.23049927 469.13381577 C153.45061232 469.13314646 151.67072418 469.13397503 149.89083862 469.13629532 C147.40766178 469.13882165 144.92457626 469.13498154 142.44140625 469.12939453 C141.32706711 469.13243088 141.32706711 469.13243088 140.19021606 469.13552856 C135.11426262 469.11426262 135.11426262 469.11426262 134 468 C133.88188497 466.19131008 133.83263847 464.37808171 133.81054688 462.56567383 C133.78547058 460.8229998 133.78547058 460.8229998 133.7598877 459.04512024 C133.73952454 457.14526619 133.73952454 457.14526619 133.71875 455.20703125 C133.69062083 453.22994945 133.66248661 451.2528677 133.63405609 449.27579021 C133.58526195 445.78807852 133.542909 442.30028821 133.5 438.8125 C133.4488306 434.67245197 133.39640906 430.5324413 133.33703613 426.39250183 C133.30045124 423.81159578 133.26799918 421.23062712 133.2401123 418.64961243 C133.21503601 416.8832972 133.21503601 416.8832972 133.18945312 415.08129883 C133.17692505 414.04951004 133.16439697 413.01772125 133.15148926 411.95466614 C133.05515327 408.95107281 133.05515327 408.95107281 132.46160889 405.83087158 C131.89195397 402.33739485 132.44636007 399.48891854 133 396 C133.11204572 393.32601202 133.18691749 390.67778012 133.203125 388.00390625 C133.20882507 387.25270004 133.21452515 386.50149384 133.22039795 385.7275238 C133.22979647 384.14168684 133.23636131 382.55583079 133.24023438 380.9699707 C133.24984767 378.60005319 133.28088079 376.23103939 133.3125 373.86132812 C133.4715426 350.81608556 128.25222056 329.47448511 112 312.4375 C107.70668653 308.37715703 103.36326081 305.44692532 98 303 C97.35933594 302.69449219 96.71867188 302.38898438 96.05859375 302.07421875 C83.49726547 296.34972573 65.75306231 297.44951988 53 302 C52.16855469 302.29003906 51.33710937 302.58007812 50.48046875 302.87890625 C42.30399443 305.95635092 33.96406265 309.64213794 26.9375 314.875 C24 317 24 317 21 317 C20.74476563 317.60199219 20.48953125 318.20398438 20.2265625 318.82421875 C18.85963104 321.24899844 17.64877563 322.24078657 15.375 323.8125 C7.67793712 328.97586139 7.67793712 328.97586139 2 336 C1.34 336 0.68 336 0 336 C0.00092179 336.67937087 0.00184359 337.35874174 0.00279331 338.05869961 C0.02484812 354.56585631 0.04141135 371.07300837 0.05181217 387.58017635 C0.05697522 395.562815 0.06401809 403.54544383 0.07543945 411.52807617 C0.08538602 418.48323799 0.09185336 425.43839269 0.09408849 432.39356142 C0.09539565 436.07851927 0.09848179 439.76345678 0.10573006 443.44840813 C0.1137434 447.55537708 0.11399116 451.66231037 0.11352539 455.76928711 C0.11712067 456.99998932 0.12071594 458.23069153 0.12442017 459.49868774 C0.1230455 460.61073074 0.12167084 461.72277374 0.12025452 462.86851501 C0.12117631 463.84100661 0.1220981 464.81349821 0.12304783 465.81545925 C0 468 0 468 -1 469 C-3.51475374 469.10036005 -6.00206248 469.1361771 -8.51733398 469.12939453 C-9.30430664 469.13114685 -10.0912793 469.13289917 -10.90209961 469.13470459 C-13.51678642 469.13912411 -16.13140619 469.13618449 -18.74609375 469.1328125 C-20.55591342 469.13348558 -22.36573301 469.13445564 -24.17555237 469.13571167 C-27.9745469 469.13718883 -31.77351796 469.13503375 -35.57250977 469.13037109 C-40.44978678 469.12467785 -45.32700873 469.12795013 -50.20428371 469.13394356 C-53.94367388 469.13755214 -57.68305093 469.13640914 -61.42244148 469.13381577 C-63.22103952 469.13314711 -65.01963874 469.13397279 -66.8182354 469.13629532 C-69.3299463 469.13882624 -71.8415673 469.13497481 -74.35327148 469.12939453 C-75.47624382 469.13243088 -75.47624382 469.13243088 -76.62190247 469.13552856 C-81.77147306 469.11426347 -81.77147306 469.11426347 -84 468 C-84.06859834 410.83410676 -84.12150034 353.66821758 -84.15319599 296.5022913 C-84.15693814 289.76031652 -84.16082778 283.01834184 -84.16479492 276.27636719 C-84.1651872 275.60544434 -84.16557948 274.93452149 -84.16598364 274.24326764 C-84.17877747 252.47992228 -84.20131868 230.71660023 -84.22889166 208.95326901 C-84.2579657 185.96350711 -84.27598189 162.97375481 -84.28226548 139.98397386 C-84.2863912 126.20461342 -84.29944307 112.42531985 -84.3237494 98.64597999 C-84.33955162 89.20956798 -84.34441293 79.77319078 -84.34050413 70.3367665 C-84.33857395 64.88445536 -84.34162677 59.43226146 -84.35761642 53.97997093 C-84.37212675 48.99599787 -84.37301061 44.0122218 -84.36269668 39.02824001 C-84.36142042 37.21798366 -84.36530082 35.40771542 -84.37464955 33.59748276 C-84.3865579 31.15084041 -84.38028134 28.70492442 -84.36914349 26.25829506 C-84.37702453 25.54319798 -84.38490557 24.82810091 -84.39302543 24.09133422 C-84.37259549 22.12739813 -84.37259549 22.12739813 -84 19 C-80.63291834 16.75527889 -77.4311401 15.88930828 -73.5625 14.9375 C-72.85544922 14.7612207 -72.14839844 14.58494141 -71.41992188 14.40332031 C-65.31556853 12.94741277 -59.27427267 12.23766184 -53 12 C-53 11.34 -53 10.68 -53 10 C-51.90300781 9.80664062 -50.80601562 9.61328125 -49.67578125 9.4140625 C-48.22130418 9.15131825 -46.76687983 8.88828199 -45.3125 8.625 C-44.59126953 8.49867188 -43.87003906 8.37234375 -43.12695312 8.2421875 C-39.17613425 7.52057675 -35.7227901 6.54176156 -32 5 C-30.19630049 4.62193198 -28.38257193 4.28914618 -26.5625 4 C-23.5769179 3.49113914 -20.87781201 2.95927067 -18 2 C-12.03398262 0.01132754 -6.15566243 -1.53891561 0 0 Z " fill="#000002" transform="translate(667,652)"/>
<path d="M0 0 C0.66805664 0.00086609 1.33611328 0.00173218 2.02441406 0.00262451 C13.24579176 0.04026392 13.24579176 0.04026392 16.875 1.25 C18.63638267 1.50862132 20.4030561 1.73201594 22.171875 1.93359375 C23.2134375 2.05669922 24.255 2.17980469 25.328125 2.30664062 C27.51017811 2.5587143 29.6924683 2.8087449 31.875 3.05664062 C37.3982241 3.71303364 42.56587166 4.51775638 47.875 6.25 C48.94621094 6.56839844 50.01742187 6.88679687 51.12109375 7.21484375 C57.12213175 9.04380148 63.04319254 10.93818788 68.875 13.25 C69.68710937 13.55808594 70.49921875 13.86617187 71.3359375 14.18359375 C76.47549072 16.1668748 81.16856203 18.38521167 85.875 21.25 C85.875 21.91 85.875 22.57 85.875 23.25 C86.59816406 23.34667969 87.32132812 23.44335938 88.06640625 23.54296875 C91.27680404 24.35114956 93.1570326 25.6034111 95.8125 27.5625 C96.67875 28.1915625 97.545 28.820625 98.4375 29.46875 C99.6440625 30.35046875 99.6440625 30.35046875 100.875 31.25 C102.86060094 32.60682731 104.8663694 33.92724326 106.875 35.25 C107.865 35.91 108.855 36.57 109.875 37.25 C109.875 37.91 109.875 38.57 109.875 39.25 C110.596875 39.45625 111.31875 39.6625 112.0625 39.875 C115.07896843 41.3497179 116.59046723 43.05067269 118.62890625 45.6796875 C119.99587427 47.46379389 119.99587427 47.46379389 122.3125 49.6875 C138.73685567 66.11185567 138.73685567 66.11185567 139.875 75.25 C140.535 75.25 141.195 75.25 141.875 75.25 C143.04907021 77.51727333 144.21439739 79.78834624 145.375 82.0625 C145.87580078 83.02639648 145.87580078 83.02639648 146.38671875 84.00976562 C147.87739084 86.94547699 148.875 88.91126517 148.875 92.25 C149.535 92.25 150.195 92.25 150.875 92.25 C151.16503906 93.35408203 151.16503906 93.35408203 151.4609375 94.48046875 C151.85152344 95.94419922 151.85152344 95.94419922 152.25 97.4375 C152.63285156 98.88189453 152.63285156 98.88189453 153.0234375 100.35546875 C153.80094376 103.19954596 153.80094376 103.19954596 154.87890625 105.62890625 C156.16488862 109.01280496 156.8022433 112.45062926 157.4375 116 C157.56318359 116.66515625 157.68886719 117.3303125 157.81835938 118.015625 C159.70658804 128.29707951 160.18750382 138.49641383 160.25 148.9375 C160.25456207 149.67234619 160.25912415 150.40719238 160.26382446 151.16430664 C160.28848134 162.3642789 159.43058472 173.20774406 157.5625 184.25 C157.34964355 185.53092529 157.13678711 186.81185059 156.91748047 188.1315918 C155.70107145 194.72764443 155.70107145 194.72764443 154.875 197.25 C151.82211199 199.28525867 151.24624138 199.49973076 147.82015705 199.49609566 C146.99210255 199.50007775 146.16404805 199.50405985 145.31090099 199.50816262 C144.40137571 199.50233693 143.49185044 199.49651125 142.55476379 199.49050903 C141.58848216 199.49221788 140.62220053 199.49392673 139.62663764 199.49568737 C136.37447114 199.49899322 133.12250896 199.4879605 129.87036133 199.47705078 C127.54482529 199.4764869 125.21928889 199.47680277 122.89375305 199.47793579 C116.56765519 199.47851122 110.24163268 199.46672614 103.91555238 199.45278788 C97.97804377 199.44157533 92.04053816 199.43954319 86.10302039 199.43748413 C74.34153384 199.43310539 62.58007501 199.41979143 50.81860352 199.40087891 C39.39249816 199.38252474 27.96640032 199.36836597 16.5402832 199.35986328 C15.83614042 199.35933783 15.13199763 199.35881239 14.40651719 199.35827102 C10.87408832 199.35566097 7.3416594 199.35313355 3.80923045 199.35064721 C-25.50219758 199.32990914 -54.81359849 199.2945302 -84.125 199.25 C-83.69831968 202.25189272 -83.25901091 205.25104612 -82.8125 208.25 C-82.63557617 209.50876953 -82.63557617 209.50876953 -82.45507812 210.79296875 C-81.26667725 218.65469762 -78.72935826 225.33203333 -75.125 232.4375 C-74.63 233.42105469 -74.135 234.40460938 -73.625 235.41796875 C-72.62369937 237.3084452 -71.55984874 239.16706257 -70.4375 240.98828125 C-69.125 243.25 -69.125 243.25 -69.125 245.25 C-68.25875 245.62125 -68.25875 245.62125 -67.375 246 C-64.79560021 247.43299988 -63.06378408 249.03424676 -61.125 251.25 C-61.125 251.91 -61.125 252.57 -61.125 253.25 C-60.38636719 253.52199219 -59.64773437 253.79398438 -58.88671875 254.07421875 C-56.27475099 255.18624463 -54.24237714 256.42357235 -51.9375 258.0625 C-45.47891562 262.46510169 -38.65837964 266.06928484 -31.125 268.25 C-31.125 268.91 -31.125 269.57 -31.125 270.25 C-30.47273437 270.31058594 -29.82046875 270.37117188 -29.1484375 270.43359375 C-24.43783783 270.88519991 -19.78298362 271.39195039 -15.125 272.25 C-15.125 272.91 -15.125 273.57 -15.125 274.25 C-9.77222015 274.27494306 -4.41947503 274.29297376 0.93334961 274.30493164 C2.74976186 274.30992311 4.56617018 274.31671864 6.38256836 274.32543945 C24.34581812 274.63675105 24.34581812 274.63675105 41.875 271.25 C43.35194657 270.92717015 44.83131666 270.61529728 46.3125 270.3125 C58.66298889 267.59331673 70.32061754 261.6118224 80.73046875 254.5703125 C82.875 253.25 82.875 253.25 84.875 253.25 C84.875 252.59 84.875 251.93 84.875 251.25 C87.875 249.25 87.875 249.25 90.359375 249.28125 C93.89773397 250.64384786 94.47130676 252.37579763 96.125 255.75 C97.00865234 257.50570312 97.00865234 257.50570312 97.91015625 259.296875 C98.38026123 260.25110352 98.38026123 260.25110352 98.85986328 261.22460938 C100.30641903 264.11076294 101.84323808 266.94607579 103.3737793 269.78833008 C106.49736299 275.5999022 109.56456273 281.39953828 112.12109375 287.48828125 C112.87591184 289.32401871 112.87591184 289.32401871 113.97265625 291.29296875 C114.875 293.25 114.875 293.25 114.875 296.25 C115.535 296.25 116.195 296.25 116.875 296.25 C117.29072266 297.09884766 117.29072266 297.09884766 117.71484375 297.96484375 C118.07707031 298.69832031 118.43929688 299.43179687 118.8125 300.1875 C119.17214844 300.91839844 119.53179687 301.64929687 119.90234375 302.40234375 C120.73871827 304.21249027 120.73871827 304.21249027 121.875 305.25 C122.1875 307.5625 122.1875 307.5625 121.875 310.25 C120.0625 312.5625 120.0625 312.5625 117.875 314.25 C116.885 314.25 115.895 314.25 114.875 314.25 C114.545 315.24 114.215 316.23 113.875 317.25 C109.65990561 319.97741402 105.7154451 321.83328436 100.875 323.25 C100.875 323.91 100.875 324.57 100.875 325.25 C81.72865854 333.25515139 62.91282291 338.42543002 42.25 340.796875 C39.04271014 340.88004744 39.04271014 340.88004744 37.875 342.25 C26.05799526 343.87248948 13.90202642 343.40288859 2.00585938 343.38037109 C-1.38155547 343.37498959 -4.76883906 343.38035512 -8.15625 343.38671875 C-10.33854196 343.38605824 -12.52083383 343.38477763 -14.703125 343.3828125 C-15.70128235 343.38483673 -16.6994397 343.38686096 -17.72784424 343.38894653 C-35.04320046 343.33179954 -35.04320046 343.33179954 -37.125 341.25 C-39.23431137 340.93530435 -41.34475558 340.62687266 -43.45947266 340.35083008 C-61.02466228 338.03894352 -76.14027724 332.78431962 -92.125 325.25 C-92.125 324.59 -92.125 323.93 -92.125 323.25 C-92.86492187 323.13785156 -93.60484375 323.02570313 -94.3671875 322.91015625 C-97.2213799 322.22692889 -98.86019464 321.35491173 -101.25 319.6875 C-102.01441406 319.15511719 -102.77882813 318.62273437 -103.56640625 318.07421875 C-104.41074219 317.47222656 -105.25507812 316.87023438 -106.125 316.25 C-107.12402344 315.55519531 -108.12304688 314.86039063 -109.15234375 314.14453125 C-115.0061765 310.00842549 -115.0061765 310.00842549 -117.125 308.25 C-117.125 307.59 -117.125 306.93 -117.125 306.25 C-117.681875 306.0025 -118.23875 305.755 -118.8125 305.5 C-123.94137071 302.72763746 -127.49529917 298.83897941 -131.23046875 294.4609375 C-133.1975692 292.165311 -135.22009648 289.92765718 -137.25 287.6875 C-151.125 272.04804913 -151.125 272.04804913 -151.125 264.25 C-151.785 264.25 -152.445 264.25 -153.125 264.25 C-153.35574219 263.65574219 -153.58648437 263.06148437 -153.82421875 262.44921875 C-155.63682304 257.84248137 -157.54370719 253.33798686 -159.6875 248.875 C-161.90497176 244.07274522 -163.28915523 239.32454977 -164.44921875 234.171875 C-164.936364 232.06560535 -165.49949909 229.97640587 -166.109375 227.90234375 C-167.20176194 223.97395225 -167.98723912 220.07510601 -168.6875 216.0625 C-168.81318359 215.38380859 -168.93886719 214.70511719 -169.06835938 214.00585938 C-171.2742239 201.52135908 -171.36205192 188.95042562 -171.375 176.3125 C-171.37667175 175.44927124 -171.37834351 174.58604248 -171.38006592 173.69665527 C-171.38157988 160.64325066 -170.68066375 148.07962445 -168.125 135.25 C-167.72852484 132.97927864 -167.33257411 130.70846554 -166.9375 128.4375 C-166.67115325 127.04080361 -166.40259456 125.64450445 -166.125 124.25 C-165.465 124.25 -164.805 124.25 -164.125 124.25 C-164.06441406 123.64671875 -164.00382812 123.0434375 -163.94140625 122.421875 C-163.85761719 121.62265625 -163.77382812 120.8234375 -163.6875 120 C-163.60628906 119.21109375 -163.52507812 118.4221875 -163.44140625 117.609375 C-163.14865007 115.42635361 -162.70435581 113.3726818 -162.125 111.25 C-161.465 111.25 -160.805 111.25 -160.125 111.25 C-160.0425 110.095 -159.96 108.94 -159.875 107.75 C-159.26285951 102.95350193 -157.41712912 99.44866642 -155.125 95.25 C-154.03527692 93.08654 -152.95221715 90.91971398 -151.875 88.75 C-150.95833333 86.91666667 -150.04166667 85.08333333 -149.125 83.25 C-148.465 83.25 -147.805 83.25 -147.125 83.25 C-146.465 81.27 -145.805 79.29 -145.125 77.25 C-144.465 77.25 -143.805 77.25 -143.125 77.25 C-142.83625 76.280625 -142.5475 75.31125 -142.25 74.3125 C-141.125 71.25 -141.125 71.25 -139.125 70.25 C-137.99149466 68.23330173 -137.99149466 68.23330173 -137.125 66.25 C-136.465 66.25 -135.805 66.25 -135.125 66.25 C-134.91488281 65.5590625 -134.70476562 64.868125 -134.48828125 64.15625 C-132.70313866 60.35067381 -130.20188625 57.76166983 -127.3125 54.75 C-126.79107422 54.19441406 -126.26964844 53.63882813 -125.73242188 53.06640625 C-124.20841728 51.44917291 -122.66862639 49.84848628 -121.125 48.25 C-120.65271973 47.74855469 -120.18043945 47.24710938 -119.69384766 46.73046875 C-118.54339565 45.53146556 -117.33850447 44.38514554 -116.125 43.25 C-115.465 43.25 -114.805 43.25 -114.125 43.25 C-113.795 42.26 -113.465 41.27 -113.125 40.25 C-110.9453125 38.49609375 -110.9453125 38.49609375 -108.25 36.6875 C-107.36570313 36.08808594 -106.48140625 35.48867188 -105.5703125 34.87109375 C-104.76335937 34.33613281 -103.95640625 33.80117188 -103.125 33.25 C-102.135 32.59 -101.145 31.93 -100.125 31.25 C-99.135 31.25 -98.145 31.25 -97.125 31.25 C-96.63 29.765 -96.63 29.765 -96.125 28.25 C-93.796875 26.75 -93.796875 26.75 -90.875 25.25 C-86.75919105 23.11775977 -86.75919105 23.11775977 -82.7421875 20.80859375 C-71.21280641 13.94258919 -58.8169577 7.9559624 -45.51171875 5.7421875 C-43.03639166 5.28650558 -43.03639166 5.28650558 -40.39453125 4.296875 C-27.43601073 0.1476713 -13.48777511 -0.03360607 0 0 Z " fill="#000002" transform="translate(187.125,783.75)"/>
<path d="M0 0 C0.33 85.47 0.66 170.94 1 259 C3.97 255.535 3.97 255.535 7 252 C8.66666667 250.33333333 10.33333333 248.66666667 12 247 C17.04503269 241.55533185 17.04503269 241.55533185 21.6171875 235.72265625 C22.30167969 234.86994141 22.30167969 234.86994141 23 234 C23.66 234 24.32 234 25 234 C25.66 232.68 26.32 231.36 27 230 C27.66 230 28.32 230 29 230 C29.18175781 229.33613281 29.36351562 228.67226562 29.55078125 227.98828125 C31.6544002 223.65063031 34.84589758 220.61950325 38.1875 217.1875 C39.49484311 215.82812334 40.80083658 214.46744739 42.10546875 213.10546875 C42.74959717 212.43306152 43.39372559 211.7606543 44.05737305 211.06787109 C48.0011819 206.86979883 51.79584338 202.56214913 55.3125 198 C55.869375 197.34 56.42625 196.68 57 196 C57.66 196 58.32 196 59 196 C59.2475 195.43410156 59.495 194.86820313 59.75 194.28515625 C61.20697876 191.62161696 62.94104304 189.66926227 65 187.4375 C65.80179688 186.56222656 66.60359375 185.68695312 67.4296875 184.78515625 C68.27789062 183.86605469 69.12609375 182.94695312 70 182 C79.73464785 171.76348147 79.73464785 171.76348147 88.56640625 160.77734375 C89.03949219 160.19082031 89.51257813 159.60429688 90 159 C90.66 159 91.32 159 92 159 C92.2475 158.443125 92.495 157.88625 92.75 157.3125 C94.22924818 154.57589087 95.93467439 152.32349131 98 150 C98.66 150 99.32 150 100 150 C100.27790312 149.41631936 100.55580624 148.83263872 100.84213066 148.23127079 C102.7274426 144.59818258 104.76909075 141.56317967 108 139 C111.21150242 138.03429122 114.25226018 138.11058384 117.58544922 138.20532227 C119.00590797 138.20378899 119.00590797 138.20378899 120.45506287 138.20222473 C123.57276255 138.2070863 126.68750211 138.26146045 129.8046875 138.31640625 C131.97085978 138.32946752 134.13705279 138.33942919 136.30325317 138.34642029 C141.99525385 138.37310385 147.68599733 138.44183058 153.37750244 138.51934814 C159.1889953 138.5910499 165.00069199 138.62294671 170.8125 138.65820312 C182.20888467 138.73319979 193.60433765 138.85261884 205 139 C205.61328125 141.32421875 205.61328125 141.32421875 206 144 C204.1875 146.8125 204.1875 146.8125 202 149 C201.34 149 200.68 149 200 149 C199.74186523 149.58483154 199.48373047 150.16966309 199.21777344 150.7722168 C197.90141717 153.18034649 196.4790273 154.73431079 194.515625 156.64453125 C193.48308594 157.66063477 193.48308594 157.66063477 192.4296875 158.69726562 C191.71039063 159.39529297 190.99109375 160.09332031 190.25 160.8125 C185.73717128 165.21374779 181.3368574 169.6033122 177.31542969 174.46362305 C176 176 176 176 174.39550781 177.57348633 C172.88813052 178.96891728 172.88813052 178.96891728 172 181 C171.34 181 170.68 181 170 181 C169.7525 181.556875 169.505 182.11375 169.25 182.6875 C167.77075182 185.42410913 166.06532561 187.67650869 164 190 C163.34 190 162.68 190 162 190 C161.7525 190.556875 161.505 191.11375 161.25 191.6875 C159.77075182 194.42410913 158.06532561 196.67650869 156 199 C155.34 199 154.68 199 154 199 C153.72905518 199.5976416 153.45811035 200.1952832 153.17895508 200.81103516 C152.01514771 202.97187525 150.89050799 204.32843607 149.13671875 206.0234375 C148.30043945 206.84328125 148.30043945 206.84328125 147.44726562 207.6796875 C146.86654297 208.23914062 146.28582031 208.79859375 145.6875 209.375 C141.52203395 213.4130962 137.66666081 217.50205757 134 222 C132.33333333 223.66666667 130.66666667 225.33333333 129 227 C124.19333478 232.23291667 119.49680019 237.56208202 114.828125 242.91796875 C111.25990913 246.98177016 107.65401417 251.01315895 104 255 C103.45859375 255.59167969 102.9171875 256.18335937 102.359375 256.79296875 C101 258 101 258 99 258 C98.71125 258.61875 98.4225 259.2375 98.125 259.875 C97 262 97 262 95 264 C95.35128506 267.40531437 96.94628724 269.59976544 98.9375 272.3125 C102.02749724 276.6119019 105.01116796 280.96367199 107.9375 285.375 C108.57703613 286.33805054 108.57703613 286.33805054 109.22949219 287.32055664 C110.08100954 288.60316677 110.93225047 289.88596046 111.78320312 291.16894531 C113.57675356 293.86790765 115.38351402 296.55800541 117.1875 299.25 C119.81221548 303.1950917 122.42303643 307.14852315 125 311.125 C125.5775 312.01445312 126.155 312.90390625 126.75 313.8203125 C128 316 128 316 128 318 C128.66 318 129.32 318 130 318 C131.5078125 319.86328125 131.5078125 319.86328125 133.125 322.3125 C133.66382813 323.11300781 134.20265625 323.91351562 134.7578125 324.73828125 C136 327 136 327 136 330 C136.66 330 137.32 330 138 330 C141 334.38461538 141 334.38461538 141 337 C141.66 337 142.32 337 143 337 C143.4021875 338.4540625 143.4021875 338.4540625 143.8125 339.9375 C144.4003125 341.4534375 144.4003125 341.4534375 145 343 C145.99 343.33 146.98 343.66 148 344 C148.99072074 345.6567515 149.97247731 347.32028387 150.88476562 349.02148438 C153.10190766 352.95487296 155.93288258 356.49630995 158.640625 360.1015625 C162 364.68071057 162 364.68071057 162 368 C162.66 368 163.32 368 164 368 C165.5078125 370.08203125 165.5078125 370.08203125 167.125 372.8125 C167.66382813 373.70582031 168.20265625 374.59914063 168.7578125 375.51953125 C170 378 170 378 170 381 C170.99 381.33 171.98 381.66 173 382 C174.578125 384.15234375 174.578125 384.15234375 176.25 386.9375 C179.21625007 391.78216429 182.37217386 396.41232673 185.71484375 401.00390625 C187 403 187 403 187 405 C187.66 405 188.32 405 189 405 C197.18344965 415.55234297 197.18344965 415.55234297 198.5625 421.375 C198.706875 421.91125 198.85125 422.4475 199 423 C199.99 423.33 200.98 423.66 202 424 C204.4611743 427.87821405 206.4274017 431.67535468 208 436 C208.66 436 209.32 436 210 436 C211.2831085 437.86743491 212.47481119 439.79788672 213.625 441.75 C214.3365946 442.94126939 215.05018912 444.13134609 215.765625 445.3203125 C216.13236328 445.93036133 216.49910156 446.54041016 216.87695312 447.16894531 C219.76498356 451.87769059 222.9064524 456.42503524 226 461 C228.1519437 464.22791555 228.20086443 465.28400809 228 469 C215.60445306 469.23186346 203.20942314 469.40946425 190.81214809 469.51812172 C185.05521915 469.57027753 179.2997753 469.64099549 173.54370117 469.75439453 C167.98685729 469.86318144 162.43144001 469.92286829 156.87361336 469.94877243 C154.75515339 469.96722754 152.63677022 470.00326935 150.51891899 470.05730057 C133.89204859 470.46455644 133.89204859 470.46455644 129.1736908 466.81227112 C127.35518896 464.25249269 126.14056294 461.91396572 125 459 C124.36449219 458.01386719 123.72898438 457.02773437 123.07421875 456.01171875 C122.61660156 455.24472656 122.15898437 454.47773438 121.6875 453.6875 C121.21699219 452.90761719 120.74648437 452.12773437 120.26171875 451.32421875 C118.96696051 448.93913778 117.95660884 446.53748354 117 444 C116.34 444 115.68 444 115 444 C113 441 113 441 113 438 C112.01 437.67 111.02 437.34 110 437 C109.00927926 435.3432485 108.02752269 433.67971613 107.11523438 431.97851562 C104.89809234 428.04512704 102.06711742 424.50369005 99.359375 420.8984375 C96 416.31928943 96 416.31928943 96 413 C95.34 413 94.68 413 94 413 C92.51953125 410.9453125 92.51953125 410.9453125 90.8125 408.125 C88.44220541 404.28127904 86.01008698 400.54221076 83.375 396.875 C75 385.04034989 75 385.04034989 75 381 C74.34 381 73.68 381 73 381 C71 378 71 378 71 375 C70.01 374.67 69.02 374.34 68 374 C67.09794093 372.47343849 66.20944434 370.93771658 65.37890625 369.37109375 C63.19813951 365.62116341 60.63007097 362.12973079 58.08544922 358.62011719 C56.08963847 355.81169633 54.49548014 353.45156502 54 350 C53.34 350 52.68 350 52 350 C50.51953125 347.9453125 50.51953125 347.9453125 48.8125 345.125 C46.38882351 341.21177234 43.93078298 337.34885319 41.3125 333.5625 C40.77238281 332.78003906 40.23226562 331.99757813 39.67578125 331.19140625 C37.9418101 328.92390552 36.06089395 326.97109465 34 325 C33.19820313 325.87398437 32.39640625 326.74796875 31.5703125 327.6484375 C23.83492158 336.03027207 15.90768003 344.18048336 7.77978516 352.18310547 C7.04163574 352.91287598 6.30348633 353.64264648 5.54296875 354.39453125 C4.88321045 355.04268799 4.22345215 355.69084473 3.54370117 356.35864258 C1.02695577 359.03460008 0.87050114 360.80914449 0.84178162 364.37857056 C0.8319928 365.29846268 0.82220398 366.2183548 0.81211853 367.16612244 C0.80636307 368.17816238 0.8006076 369.19020233 0.79467773 370.23291016 C0.78477814 371.2963414 0.77487854 372.35977264 0.76467896 373.45542908 C0.7329992 376.98328395 0.70828093 380.51115232 0.68359375 384.0390625 C0.66302982 386.48001462 0.6420335 388.92096314 0.62062073 391.36190796 C0.56534217 397.79643845 0.51595842 404.23100138 0.46777344 410.66558838 C0.40878419 418.38069215 0.34252447 426.09573644 0.27747345 433.81079102 C0.1793912 445.54049111 0.09058483 457.2702288 0 469 C-27.06 469 -54.12 469 -82 469 C-82 320.17 -82 171.34 -82 18 C-77.71 17.01 -73.42 16.02 -69 15 C-67.02 14.34 -65.04 13.68 -63 13 C-60.52856125 12.45748906 -58.05266944 12.00945349 -55.5625 11.5625 C-52.95200087 11.04016658 -52.95200087 11.04016658 -50.31640625 10.08203125 C-45.91693415 8.64663223 -41.45395201 7.6825966 -36.9375 6.6875 C-30.95238413 5.35758645 -24.97674755 4.0100337 -19.02734375 2.52734375 C-17.6033728 2.17506714 -17.6033728 2.17506714 -16.15063477 1.81567383 C-14.33284206 1.3633442 -12.5168232 0.90381071 -10.70288086 0.4362793 C-9.88053955 0.23301025 -9.05819824 0.02974121 -8.2109375 -0.1796875 C-7.49212402 -0.36257324 -6.77331055 -0.54545898 -6.03271484 -0.73388672 C-4 -1 -4 -1 0 0 Z " fill="#000002" transform="translate(128,1826)"/>
<path d="M0 0 C1.32 0.33 2.64 0.66 4 1 C4.33 86.14 4.66 171.28 5 259 C6.98 257.02 8.96 255.04 11 253 C11.66 253 12.32 253 13 253 C13.23976563 252.44183594 13.47953125 251.88367188 13.7265625 251.30859375 C15.27704087 248.49775719 17.19281874 246.4150509 19.375 244.0625 C22.39022931 240.80020341 25.24805572 237.48737766 28 234 C29.625 232.1875 29.625 232.1875 31 231 C31.66 231 32.32 231 33 231 C33.2475 230.278125 33.495 229.55625 33.75 228.8125 C35.12269592 225.72393418 36.72353296 223.48988582 39 221 C39.66 221 40.32 221 41 221 C41.226875 220.46375 41.45375 219.9275 41.6875 219.375 C43.45570089 216.17539839 45.53670203 213.70962777 48 211 C48.66 211 49.32 211 50 211 C50.66 209.68 51.32 208.36 52 207 C52.66 207 53.32 207 54 207 C54.23976562 206.44183594 54.47953125 205.88367188 54.7265625 205.30859375 C56.27704087 202.49775719 58.19281874 200.4150509 60.375 198.0625 C63.39049704 194.79991374 66.2419528 191.48261892 69 188 C71.125 185.6875 71.125 185.6875 73 184 C73.66 184 74.32 184 75 184 C75.3403125 182.9171875 75.3403125 182.9171875 75.6875 181.8125 C77.27610081 178.40835541 79.30988632 176.63033337 82 174 C83.85754807 171.62602154 85.66290379 169.22093121 87.44921875 166.79296875 C87.96097656 166.20128906 88.47273437 165.60960937 89 165 C89.66 165 90.32 165 91 165 C91.39638672 164.11054688 91.39638672 164.11054688 91.80078125 163.203125 C93.04370425 160.91970946 94.30401646 159.52573277 96.1875 157.75 C100.67512926 153.39325992 105.3465771 148.83802584 108.50836182 143.41096497 C111.70681245 140.31607242 113.46679252 140.41325811 117.78034973 140.37789917 C118.69169174 140.39587555 119.60303375 140.41385193 120.54199219 140.43237305 C121.50817978 140.43164291 122.47436737 140.43091278 123.46983337 140.43016052 C126.66275208 140.43364339 129.85421122 140.47253879 133.046875 140.51171875 C135.26075442 140.52104435 137.47464417 140.52816166 139.6885376 140.53315735 C145.51508072 140.5522468 151.3410005 140.60136525 157.16729736 140.65667725 C163.11274787 140.70782722 169.05829912 140.73066236 175.00390625 140.75585938 C186.66954469 140.80948139 198.33472051 140.89481844 210 141 C209.27994371 145.29189105 208.24730486 147.29987 205.25 150.5 C204.17105469 151.65822266 204.17105469 151.65822266 203.0703125 152.83984375 C202.38710938 153.55269531 201.70390625 154.26554688 201 155 C200.22269531 155.83724609 200.22269531 155.83724609 199.4296875 156.69140625 C198.33467219 157.84215587 197.17381995 158.9297524 196 160 C195.34 160 194.68 160 194 160 C193.67 160.99 193.34 161.98 193 163 C191.9039751 164.13027567 190.80035908 165.25396848 189.6640625 166.34375 C185.29625411 170.69105224 180.93476833 175.29040738 177.3515625 180.30859375 C176.68253906 181.14583984 176.68253906 181.14583984 176 182 C175.34 182 174.68 182 174 182 C173.77828125 182.54011719 173.5565625 183.08023438 173.328125 183.63671875 C171.56678893 186.77086087 169.20577109 189.22027449 166.75 191.8125 C165.75033676 192.88191096 164.75163138 193.95221813 163.75390625 195.0234375 C163.2758252 195.53616211 162.79774414 196.04888672 162.30517578 196.57714844 C160.70843438 198.31785343 159.19163186 200.11649769 157.6875 201.9375 C155.86409746 204.11095403 154.2525149 205.60733164 152 207.4375 C148.80915182 210.16301615 146.66000249 212.9890824 144.296875 216.42578125 C143.86890625 216.94527344 143.4409375 217.46476563 143 218 C142.34 218 141.68 218 141 218 C140.73832031 218.5775 140.47664062 219.155 140.20703125 219.75 C138.92441109 222.14090359 137.47909627 223.96608139 135.6875 226 C135.11386719 226.66 134.54023438 227.32 133.94921875 228 C132 230 132 230 129.51953125 231.9453125 C126.92294521 234.06283848 125.04473258 236.22839049 123 238.875 C122.31035156 239.75414062 121.62070313 240.63328125 120.91015625 241.5390625 C120.27980469 242.35117187 119.64945313 243.16328125 119 244 C116.43303241 247.30142574 113.80695731 250.225596 110.5625 252.875 C107.18179206 255.65780981 104.75372176 258.77889336 102.26171875 262.36328125 C101 264 101 264 99 265 C99.64778354 268.49803111 101.17177585 270.97945576 103 274 C103 274.66 103 275.32 103 276 C103.66 276 104.32 276 105 276 C106.28174956 277.6969642 107.47408002 279.46171796 108.625 281.25 C109.33269531 282.33925781 110.04039062 283.42851562 110.76953125 284.55078125 C111.13643066 285.12006348 111.50333008 285.6893457 111.88134766 286.27587891 C113.66019239 289.01752044 115.48958922 291.72503571 117.3125 294.4375 C124 304.40770791 124 304.40770791 124 307 C124.66 307 125.32 307 126 307 C126.433125 308.2065625 126.433125 308.2065625 126.875 309.4375 C127.73262568 312.1326468 127.73262568 312.1326468 130 313 C130.96447628 314.69614793 131.92577824 316.39426438 132.86328125 318.10546875 C134.09912615 320.27522017 134.09912615 320.27522017 136.5 323 C140.29864469 327.55837363 142.9650852 332.40398431 145 338 C145.66 338 146.32 338 147 338 C148.48046875 340.0546875 148.48046875 340.0546875 150.1875 342.875 C152.43550147 346.50957615 154.70868411 350.08122181 157.1875 353.5625 C160.6444364 358.45916735 164.02302375 363.40612416 167.375 368.375 C168.17973755 369.55364624 168.17973755 369.55364624 169.00073242 370.75610352 C169.5032251 371.50432373 170.00571777 372.25254395 170.5234375 373.0234375 C171.202854 374.02769775 171.202854 374.02769775 171.89599609 375.05224609 C173.02124694 377.0374852 173.5605699 378.77052933 174 381 C174.66 381 175.32 381 176 381 C177.4606285 383.64738916 178 384.89448334 178 388 C178.99 388.33 179.98 388.66 181 389 C181.6875 391.0625 181.6875 391.0625 182 393 C182.66 393 183.32 393 184 393 C187 397.38461538 187 397.38461538 187 400 C187.66 400 188.32 400 189 400 C189.66 401.98 190.32 403.96 191 406 C191.66 406 192.32 406 193 406 C193.66 407.98 194.32 409.96 195 412 C195.66 412 196.32 412 197 412 C198.69921875 414.23828125 198.69921875 414.23828125 200.6875 417.3125 C201.39261719 418.39917969 202.09773438 419.48585938 202.82421875 420.60546875 C203.18435059 421.1679834 203.54448242 421.73049805 203.91552734 422.31005859 C204.96064666 423.93867541 206.02105763 425.55744813 207.08203125 427.17578125 C212 434.73803462 212 434.73803462 212 437 C212.66 437 213.32 437 214 437 C215.5078125 439.08203125 215.5078125 439.08203125 217.125 441.8125 C217.66382813 442.70582031 218.20265625 443.59914063 218.7578125 444.51953125 C220 447 220 447 220 450 C220.99 450.33 221.98 450.66 223 451 C224.75390625 453.43359375 224.75390625 453.43359375 226.5625 456.4375 C228.97190547 460.46127259 228.97190547 460.46127259 232 464 C232.125 467.125 232.125 467.125 232 470 C219.60445306 470.23186346 207.20942314 470.40946425 194.81214809 470.51812172 C189.05521915 470.57027753 183.2997753 470.64099549 177.54370117 470.75439453 C171.98685729 470.86318144 166.43144001 470.92286829 160.87361336 470.94877243 C158.75515339 470.96722754 156.63677022 471.00326935 154.51891899 471.05730057 C137.92997783 471.46362741 137.92997783 471.46362741 133.20266724 467.87860107 C131.3532791 465.2948262 130.16283643 462.94689667 129 460 C128.09975245 458.36584666 127.18559544 456.73917594 126.25 455.125 C125.88390625 454.42632813 125.5178125 453.72765625 125.140625 453.0078125 C124.0131331 450.91511187 124.0131331 450.91511187 122.359375 448.8671875 C121 447 121 447 121 445 C120.34 445 119.68 445 119 445 C118.34 443.02 117.68 441.04 117 439 C116.34 439 115.68 439 115 439 C113.51953125 436.9453125 113.51953125 436.9453125 111.8125 434.125 C108.85732557 429.32361597 105.72039151 424.73380639 102.3828125 420.19140625 C101.04772806 418.07563685 100.43439087 416.44484093 100 414 C99.34 414 98.68 414 98 414 C96.625 412.12109375 96.625 412.12109375 95 409.4375 C92.85764656 405.95561188 90.69336839 402.51620984 88.38671875 399.140625 C87.71672852 398.15751343 87.71672852 398.15751343 87.03320312 397.15454102 C86.15284304 395.86770117 85.26760822 394.58417934 84.37695312 393.30444336 C81.88830259 389.64446144 80.19663217 386.31713154 79 382 C78.34 382 77.68 382 77 382 C76.34 380.02 75.68 378.04 75 376 C74.34 376 73.68 376 73 376 C71.4921875 374.13671875 71.4921875 374.13671875 69.875 371.6875 C69.33617187 370.88699219 68.79734375 370.08648437 68.2421875 369.26171875 C67 367 67 367 67 364 C66.01 363.67 65.02 363.34 64 363 C62.5625 361.05859375 62.5625 361.05859375 61 358.4375 C56.67733965 351.40401876 51.99513931 344.64484791 47.28515625 337.86669922 C46.12018832 336.17457444 44.98045665 334.46514397 43.84375 332.75390625 C43.2353125 331.84511719 42.626875 330.93632812 42 330 C41.484375 329.21625 40.96875 328.4325 40.4375 327.625 C39.963125 327.08875 39.48875 326.5525 39 326 C38.01 326 37.02 326 36 326 C35.7628125 326.55171875 35.525625 327.1034375 35.28125 327.671875 C33.68754857 330.56774711 31.71082727 332.79512037 29.5 335.25 C28.7059375 336.14203125 27.911875 337.0340625 27.09375 337.953125 C25 340 25 340 23 340 C22.34 341.32 21.68 342.64 21 344 C20.34 344 19.68 344 19 344 C18.34 345.32 17.68 346.64 17 348 C16.34 348 15.68 348 15 348 C14.75378906 348.58653099 14.50757813 349.17306198 14.25390625 349.77736664 C12.81061916 352.3356903 11.17906473 353.67873536 8.9375 355.56213379 C4.86505832 359.5596958 4.05769357 362.35449268 3.94117737 367.97610474 C3.96058884 368.97592377 3.98000031 369.9757428 4 371.00585938 C3.98907822 372.07992035 3.97815643 373.15398132 3.96690369 374.2605896 C3.94032083 377.78928687 3.96980004 381.31512077 4 384.84375 C3.99247837 387.29855636 3.98144173 389.75335424 3.96704102 392.20812988 C3.93864501 398.65281024 3.95787403 405.09649551 3.98712158 411.5411377 C4.01230387 419.28224552 3.97816035 427.02329293 3.95399475 434.76437378 C3.92395267 446.51016158 3.96912879 458.2535032 4 470 C-23.06 470 -50.12 470 -78 470 C-78 321.17 -78 172.34 -78 19 C-66.87899035 15.6636971 -66.87899035 15.6636971 -61.5625 15 C-57.37335639 14.41558254 -53.43094126 13.63518879 -49.375 12.4375 C-43.95217688 10.85617603 -38.62567963 10.31556037 -33 10 C-33 9.34 -33 8.68 -33 8 C-31.37191406 7.70996094 -31.37191406 7.70996094 -29.7109375 7.4140625 C-28.26558332 7.15127083 -26.82027312 6.88823714 -25.375 6.625 C-24.30572266 6.43550781 -24.30572266 6.43550781 -23.21484375 6.2421875 C-18.9922277 5.46739556 -15.06874177 4.39774578 -11 3 C-9.23563315 2.61490995 -7.46466042 2.25841364 -5.6875 1.9375 C-2.5481788 1.56646402 -2.5481788 1.56646402 0 0 Z " fill="#000002" transform="translate(124,63)"/>
<path d="M0 0 C1.54253902 -0.00576172 1.54253902 -0.00576172 3.11624044 -0.01163983 C4.83156944 -0.01034011 4.83156944 -0.01034011 6.58155155 -0.00901413 C8.38768841 -0.01347081 8.38768841 -0.01347081 10.23031288 -0.01801753 C13.58767226 -0.02522112 16.9449805 -0.02787865 20.30234396 -0.028615 C23.91726454 -0.03046069 27.53217391 -0.03800551 31.14708805 -0.04475021 C39.05806631 -0.05835346 46.96903952 -0.06436123 54.88002753 -0.06876087 C59.81538835 -0.0715197 64.7507472 -0.07575636 69.68610668 -0.08026505 C83.33860082 -0.09245986 96.99109337 -0.10275905 110.64359283 -0.10614014 C111.51799991 -0.1063597 112.39240698 -0.10657927 113.29331124 -0.10680549 C114.16986188 -0.10702377 115.04641252 -0.10724204 115.9495253 -0.10746694 C117.72587963 -0.10791041 119.50223396 -0.10835697 121.27858829 -0.10880661 C122.60030015 -0.10913875 122.60030015 -0.10913875 123.94871325 -0.10947761 C138.23511229 -0.11342792 152.52146039 -0.13088809 166.80783974 -0.15416613 C181.45962389 -0.17784778 196.11138244 -0.19034052 210.76318604 -0.19150805 C218.99605968 -0.19242657 227.22886695 -0.19822305 235.46172237 -0.21632767 C242.47051044 -0.23168569 249.47921164 -0.23687466 256.48801332 -0.22858956 C260.06697944 -0.22466782 263.64577038 -0.22568624 267.22471523 -0.23964691 C271.09731826 -0.25461558 274.96967125 -0.24656462 278.84229374 -0.23606491 C279.98361568 -0.24412132 281.12493763 -0.25217772 282.30084509 -0.26047826 C283.84729573 -0.25059349 283.84729573 -0.25059349 285.42498779 -0.24050903 C286.76724549 -0.24140467 286.76724549 -0.24140467 288.13661951 -0.24231839 C289.19532301 -0.05731404 289.19532301 -0.05731404 290.27541447 0.13142776 C293.47747047 4.93451176 292.72580042 10.10662864 292.77541447 15.75642776 C292.83728947 17.48312698 292.83728947 17.48312698 292.90041447 19.24470901 C292.97490583 27.41082518 291.46154808 31.89768032 286.27541447 38.13142776 C285.23556917 39.52899278 284.20034027 40.93000541 283.16994572 42.33455276 C282.14510809 43.68541605 281.11777305 45.0343884 280.08791447 46.38142776 C276.10302529 51.57320513 276.10302529 51.57320513 272.53713322 57.05330276 C271.27541447 59.13142776 271.27541447 59.13142776 269.27541447 60.13142776 C268.26447474 61.85980858 267.25679175 63.59049149 266.28713322 65.34236526 C265.10520891 67.43240902 263.8632576 69.32706056 262.27541447 71.13142776 C261.61541447 71.13142776 260.95541447 71.13142776 260.27541447 71.13142776 C259.90416447 72.21424026 259.90416447 72.21424026 259.52541447 73.31892776 C258.15271855 76.40749358 256.55188151 78.64154194 254.27541447 81.13142776 C253.61541447 81.13142776 252.95541447 81.13142776 252.27541447 81.13142776 C251.61541447 83.11142776 250.95541447 85.09142776 250.27541447 87.13142776 C249.61541447 87.13142776 248.95541447 87.13142776 248.27541447 87.13142776 C248.01043156 87.86804642 247.74544865 88.60466507 247.47243595 89.3636055 C246.28440548 92.11063823 244.97581643 94.07981418 243.12307072 96.41658401 C242.51141056 97.19453323 241.8997504 97.97248245 241.26955509 98.77400589 C240.63211369 99.57258011 239.99467228 100.37115433 239.33791447 101.19392776 C238.07863238 102.78884761 236.81951219 104.38389529 235.56057072 105.97908401 C235.00248722 106.68041458 234.44440372 107.38174515 233.86940861 108.10432816 C232.77038219 109.50197195 231.71412435 110.9339521 230.6950922 112.39094925 C230.22659855 112.96530716 229.7581049 113.53966507 229.27541447 114.13142776 C228.61541447 114.13142776 227.95541447 114.13142776 227.27541447 114.13142776 C227.01889103 114.85330276 226.76236759 115.57517776 226.49807072 116.31892776 C225.20459386 119.2943378 223.66507012 121.54432856 221.71291447 124.13142776 C219.35216162 127.29492289 217.0268363 130.46566356 214.81838322 133.73689651 C214.41498722 134.33308792 214.01159122 134.92927933 213.59597111 135.54353714 C212.807414 136.71453719 212.0239195 137.88896455 211.24587345 139.06697464 C210.30547075 140.4567864 209.29609669 141.79945863 208.27541447 143.13142776 C207.61541447 143.13142776 206.95541447 143.13142776 206.27541447 143.13142776 C205.61541447 144.78142776 204.95541447 146.43142776 204.27541447 148.13142776 C203.61541447 148.13142776 202.95541447 148.13142776 202.27541447 148.13142776 C202.0472504 148.8313887 201.81908634 149.53134964 201.58400822 150.25252151 C200.00927498 153.71693465 197.81432065 156.35302889 195.33791447 159.19392776 C191.83614012 163.24823763 191.83614012 163.24823763 188.58400822 167.50252151 C188.15217228 168.04006058 187.72033634 168.57759964 187.27541447 169.13142776 C186.61541447 169.13142776 185.95541447 169.13142776 185.27541447 169.13142776 C185.13103947 169.75017776 184.98666447 170.36892776 184.83791447 171.00642776 C184.27541447 173.13142776 184.27541447 173.13142776 183.27541447 175.13142776 C182.61541447 175.13142776 181.95541447 175.13142776 181.27541447 175.13142776 C181.02404728 175.84556839 180.77268009 176.55970901 180.51369572 177.29549026 C179.15854457 180.39908564 177.49200865 182.79838238 175.46291447 185.50642776 C173.04970432 188.74301995 170.67566702 191.98415463 168.40041447 195.31892776 C167.69916447 196.24705276 166.99791447 197.17517776 166.27541447 198.13142776 C165.61541447 198.13142776 164.95541447 198.13142776 164.27541447 198.13142776 C163.91963322 199.1736348 163.91963322 199.1736348 163.55666447 200.23689651 C162.04436177 203.65340962 160.0230308 206.48899447 157.77541447 209.44392776 C157.3719379 209.99371292 156.96846134 210.54349808 156.55275822 211.10994339 C155.51272755 212.49150228 154.39907992 213.81699075 153.27541447 215.13142776 C152.61541447 215.13142776 151.95541447 215.13142776 151.27541447 215.13142776 C151.02791447 215.83267776 150.78041447 216.53392776 150.52541447 217.25642776 C149.10361209 220.52657324 147.40295158 223.27254976 145.27541447 226.13142776 C144.61541447 226.13142776 143.95541447 226.13142776 143.27541447 226.13142776 C142.61541447 227.78142776 141.95541447 229.43142776 141.27541447 231.13142776 C140.61541447 231.13142776 139.95541447 231.13142776 139.27541447 231.13142776 C139.08978947 231.79142776 138.90416447 232.45142776 138.71291447 233.13142776 C137.33908263 235.99855508 136.01488805 237.67914849 133.90041447 240.00642776 C131.68252303 242.44839484 129.78338387 244.72904127 128.21291447 247.63142776 C126.27541447 251.13142776 126.27541447 251.13142776 120.27541447 259.13142776 C177.36541447 259.46142776 234.45541447 259.79142776 293.27541447 260.13142776 C293.27541447 283.23142776 293.27541447 306.33142776 293.27541447 330.13142776 C193.61541447 330.13142776 93.95541447 330.13142776 -8.72458553 330.13142776 C-10.32809278 325.32090601 -9.99231329 320.41979713 -10.03708553 315.38142776 C-10.06608944 314.30892776 -10.09509335 313.23642776 -10.12497616 312.13142776 C-10.17823149 305.478608 -9.63872878 301.54938907 -5.72458553 296.13142776 C-4.91634335 294.92679886 -4.91634335 294.92679886 -4.09177303 293.69783401 C-3.59935116 293.03654495 -3.10692928 292.37525589 -2.59958553 291.69392776 C-2.10200741 291.01459183 -1.60442928 290.33525589 -1.09177303 289.63533401 C-0.64060116 289.13904495 -0.18942928 288.64275589 0.27541447 288.13142776 C0.93541447 288.13142776 1.59541447 288.13142776 2.27541447 288.13142776 C2.93541447 286.48142776 3.59541447 284.83142776 4.27541447 283.13142776 C4.93541447 283.13142776 5.59541447 283.13142776 6.27541447 283.13142776 C6.50744572 282.42631058 6.73947697 281.72119339 6.97853947 280.99470901 C8.53455448 277.55929033 10.55954025 275.1696278 13.02541447 272.31892776 C16.52309858 268.23389433 19.8560009 264.08667353 23.02932072 259.74470901 C24.6097068 257.69862923 26.44977629 255.95706594 28.27541447 254.13142776 C28.60541447 253.14142776 28.93541447 252.15142776 29.27541447 251.13142776 C30.42520097 250.01545851 31.57654274 248.90103942 32.73635197 247.79549026 C36.43398532 243.79754151 39.83767464 239.00690741 42.27541447 234.13142776 C42.93541447 234.13142776 43.59541447 234.13142776 44.27541447 234.13142776 C44.93541447 232.48142776 45.59541447 230.83142776 46.27541447 229.13142776 C46.93541447 229.13142776 47.59541447 229.13142776 48.27541447 229.13142776 C48.51002384 228.42373245 48.74463322 227.71603714 48.98635197 226.98689651 C50.51459907 223.60159763 52.47548302 221.25549689 54.90041447 218.44392776 C55.80098211 217.38864428 56.70070914 216.33264289 57.59963322 215.27595901 C58.04871037 214.75082718 58.49778751 214.22569534 58.96047306 213.68465042 C62.74767394 209.2111688 66.50972525 204.65260748 69.87307072 199.85017776 C70.33584415 199.28299026 70.79861759 198.71580276 71.27541447 198.13142776 C71.93541447 198.13142776 72.59541447 198.13142776 73.27541447 198.13142776 C73.51518009 197.4288887 73.75494572 196.72634964 74.00197697 196.00252151 C75.48908899 192.64967693 77.40511549 190.09192993 79.65041447 187.19392776 C82.03378699 184.10510886 84.3528055 181.04690969 86.43947697 177.75252151 C87.04533634 176.88756058 87.65119572 176.02259964 88.27541447 175.13142776 C88.93541447 175.13142776 89.59541447 175.13142776 90.27541447 175.13142776 C90.93541447 173.48142776 91.59541447 171.83142776 92.27541447 170.13142776 C92.93541447 170.13142776 93.59541447 170.13142776 94.27541447 170.13142776 C94.51260197 169.42631058 94.74978947 168.72119339 94.99416447 167.99470901 C96.5004362 164.62855908 98.43125964 162.16159604 100.77541447 159.31892776 C101.56947697 158.34310745 102.36353947 157.36728714 103.18166447 156.36189651 C103.87260197 155.62584183 104.56353947 154.88978714 105.27541447 154.13142776 C105.93541447 154.13142776 106.59541447 154.13142776 107.27541447 154.13142776 C107.52291447 153.43017776 107.77041447 152.72892776 108.02541447 152.00642776 C110.02737473 147.40191915 112.66178861 143.59448587 116.27541447 140.13142776 C117.61763215 138.47190758 118.9497935 136.80423517 120.27541447 135.13142776 C120.86580509 134.39924026 121.45619572 133.66705276 122.06447697 132.91267776 C127.07566671 126.68600796 131.96907713 120.37318891 136.82473087 114.02498245 C138.43363965 111.9248989 140.04777507 109.82888735 141.66213322 107.73299026 C142.82498326 106.22003831 143.9877446 104.70701818 145.15041447 103.19392776 C145.97158756 102.12936356 145.97158756 102.12936356 146.80935001 101.043293 C149.1698481 97.96572764 151.45515146 94.90389633 153.53322697 91.62752151 C154.10814884 90.80381058 154.68307072 89.98009964 155.27541447 89.13142776 C155.93541447 89.13142776 156.59541447 89.13142776 157.27541447 89.13142776 C157.93541447 87.48142776 158.59541447 85.83142776 159.27541447 84.13142776 C159.93541447 84.13142776 160.59541447 84.13142776 161.27541447 84.13142776 C161.61572697 83.04861526 161.61572697 83.04861526 161.96291447 81.94392776 C163.52579151 78.59490553 165.61126698 76.6589523 168.27541447 74.13142776 C168.60541447 73.47142776 168.93541447 72.81142776 169.27541447 72.13142776 C111.52541447 71.80142776 53.77541447 71.47142776 -5.72458553 71.13142776 C-5.72458553 0.00797572 -5.72458553 0.00797572 0 0 Z " fill="#000002" transform="translate(590.7245855331421,1964.8685722351074)"/>
<path d="M0 0 C0.81976822 0.00202423 1.63953644 0.00404846 2.48414612 0.00613403 C3.32143753 0.00517731 4.15872894 0.00422058 5.02139282 0.00323486 C6.79600601 0.00255298 8.57062168 0.00440781 10.3452301 0.00857544 C13.06672257 0.01391694 15.78804949 0.00863418 18.50953674 0.00222778 C20.23024023 0.00288869 21.95094362 0.00417013 23.67164612 0.00613403 C24.48939011 0.0041098 25.30713409 0.00208557 26.1496582 0 C31.91439222 0.02399146 31.91439222 0.02399146 34.14430237 1.13894653 C36.06347849 1.35102179 37.9834125 1.55803098 39.90626526 1.7336731 C55.80547863 3.19891727 70.246803 7.54257296 85.14430237 13.13894653 C86.14977112 13.51277466 87.15523987 13.88660278 88.19117737 14.27175903 C93.13086112 16.17278884 97.62235138 18.38645463 102.14430237 21.13894653 C102.14430237 21.79894653 102.14430237 22.45894653 102.14430237 23.13894653 C103.31992737 23.35550903 103.31992737 23.35550903 104.51930237 23.57644653 C107.14430237 24.13894653 107.14430237 24.13894653 109.14430237 25.13894653 C109.14430237 25.79894653 109.14430237 26.45894653 109.14430237 27.13894653 C110.05180237 27.38644653 110.95930237 27.63394653 111.89430237 27.88894653 C115.31877574 29.20605168 117.01741715 30.16130723 119.14430237 33.13894653 C118.75264905 36.91650596 117.47763459 39.694504 115.58180237 42.95144653 C115.12676331 43.74164185 114.67172424 44.53183716 114.20289612 45.34597778 C113.85356018 45.93765747 113.50422424 46.52933716 113.14430237 47.13894653 C112.48430237 47.13894653 111.82430237 47.13894653 111.14430237 47.13894653 C110.99992737 47.73707153 110.85555237 48.33519653 110.70680237 48.95144653 C110.25705847 50.70045058 109.71537896 52.42571676 109.14430237 54.13894653 C108.48430237 54.13894653 107.82430237 54.13894653 107.14430237 54.13894653 C106.80398987 55.34550903 106.80398987 55.34550903 106.45680237 56.57644653 C104.80061079 61.07182368 102.53682691 64.99873404 100.14430237 69.13894653 C99.17580985 70.84628902 98.20735657 72.55365396 97.23976135 74.26150513 C96.21035834 76.07019858 95.17046934 77.87252242 94.12867737 79.67410278 C92.88079354 81.85298655 91.65806344 84.04666828 90.47242737 86.26004028 C89.97227112 87.16882935 89.47211487 88.07761841 88.95680237 89.01394653 C88.53012268 89.81574341 88.10344299 90.61754028 87.66383362 91.44363403 C86.14430237 93.13894653 86.14430237 93.13894653 83.82789612 93.65847778 C80.18535189 92.95329819 78.26683429 91.28062916 75.39430237 88.95144653 C69.94099285 84.64023566 64.34748533 81.24053801 58.14430237 78.13894653 C58.14430237 77.47894653 58.14430237 76.81894653 58.14430237 76.13894653 C57.44305237 76.01777466 56.74180237 75.89660278 56.01930237 75.77175903 C51.77965708 75.02290864 47.61477259 74.26653168 43.45680237 73.13894653 C19.13708486 67.01037772 -9.05699391 68.44257675 -32.85569763 76.13894653 C-32.85569763 76.79894653 -32.85569763 77.45894653 -32.85569763 78.13894653 C-34.55726013 78.91238403 -34.55726013 78.91238403 -36.29319763 79.70144653 C-40.65299447 81.85414479 -44.24116156 84.6537215 -47.97288513 87.74832153 C-49.85569763 89.13894653 -49.85569763 89.13894653 -51.85569763 89.13894653 C-52.35069763 90.62394653 -52.35069763 90.62394653 -52.85569763 92.13894653 C-54.27366638 93.46316528 -54.27366638 93.46316528 -56.04319763 94.82644653 C-62.21982643 99.98619133 -66.0939964 106.34890918 -70.10569763 113.26394653 C-70.44721863 113.84982544 -70.78873962 114.43570435 -71.14060974 115.03933716 C-73.18007942 118.64204486 -74.67458268 122.1737749 -75.85569763 126.13894653 C-76.51569763 126.13894653 -77.17569763 126.13894653 -77.85569763 126.13894653 C-78.04132263 127.96425903 -78.04132263 127.96425903 -78.23069763 129.82644653 C-78.47962006 132.27418375 -78.86354059 134.15782128 -79.8122406 136.44094849 C-84.05539511 147.41219333 -83.16552549 160.07572202 -83.11643982 171.63162231 C-83.10571899 174.63296713 -83.11638648 177.63371358 -83.12913513 180.63504028 C-83.13863827 193.56980956 -83.06632775 206.07730275 -77.85569763 218.13894653 C-77.55663513 218.92785278 -77.25757263 219.71675903 -76.94944763 220.52957153 C-74.96732829 225.74062722 -72.65261479 230.52968868 -69.80882263 235.32644653 C-68.85569763 237.13894653 -68.85569763 237.13894653 -68.85569763 239.13894653 C-68.19569763 239.13894653 -67.53569763 239.13894653 -66.85569763 239.13894653 C-66.60819763 240.08769653 -66.36069763 241.03644653 -66.10569763 242.01394653 C-65.16998993 245.22587845 -65.16998993 245.22587845 -62.73069763 246.51394653 C-62.11194763 246.72019653 -61.49319763 246.92644653 -60.85569763 247.13894653 C-60.85569763 247.79894653 -60.85569763 248.45894653 -60.85569763 249.13894653 C-58.87569763 250.12894653 -58.87569763 250.12894653 -56.85569763 251.13894653 C-56.85569763 251.79894653 -56.85569763 252.45894653 -56.85569763 253.13894653 C-56.28464294 253.4083606 -55.71358826 253.67777466 -55.12522888 253.95535278 C-52.78638711 255.17509298 -50.70516219 256.56729543 -48.54319763 258.07644653 C-44.75874563 260.63909698 -41.1170019 262.50695767 -36.85569763 264.13894653 C-36.85569763 264.79894653 -36.85569763 265.45894653 -36.85569763 266.13894653 C-35.94819763 266.28332153 -35.04069763 266.42769653 -34.10569763 266.57644653 C-31.64092807 267.00304126 -29.26722656 267.48968875 -26.85569763 268.13894653 C-26.85569763 268.79894653 -26.85569763 269.45894653 -26.85569763 270.13894653 C-25.09007263 270.35964966 -23.32444763 270.58035278 -21.55882263 270.80105591 C-19.41819763 271.06863403 -17.27757263 271.33621216 -15.13694763 271.60379028 C-14.05824402 271.73551636 -14.05824402 271.73551636 -12.95774841 271.86990356 C-11.05254621 272.11375174 -9.15280521 272.39936717 -7.25413513 272.68972778 C-0.86444671 273.48021278 5.59053767 273.37898258 12.01930237 273.38894653 C12.70561737 273.39128296 13.39193237 273.39361938 14.0990448 273.39602661 C23.88855714 273.40859723 33.30577977 272.82978078 42.90602112 270.79519653 C46.14430237 270.13894653 46.14430237 270.13894653 50.14430237 270.13894653 C50.14430237 269.47894653 50.14430237 268.81894653 50.14430237 268.13894653 C53.44430237 267.47894653 56.74430237 266.81894653 60.14430237 266.13894653 C60.14430237 265.47894653 60.14430237 264.81894653 60.14430237 264.13894653 C60.65477112 263.93140747 61.16523987 263.72386841 61.69117737 263.51004028 C67.64974497 260.98504444 73.11284039 257.88987361 78.64039612 254.52957153 C81.14430237 253.13894653 81.14430237 253.13894653 83.14430237 253.13894653 C83.14430237 252.47894653 83.14430237 251.81894653 83.14430237 251.13894653 C85.61930237 250.14894653 85.61930237 250.14894653 88.14430237 249.13894653 C88.14430237 248.47894653 88.14430237 247.81894653 88.14430237 247.13894653 C89.79430237 247.13894653 91.44430237 247.13894653 93.14430237 247.13894653 C101.95979212 263.84737478 101.95979212 263.84737478 103.14430237 272.13894653 C103.80430237 272.13894653 104.46430237 272.13894653 105.14430237 272.13894653 C106.15126805 274.23978862 107.14966127 276.34474142 108.14430237 278.45144653 C108.97961487 280.20908325 108.97961487 280.20908325 109.83180237 282.00222778 C111.14430237 285.13894653 111.14430237 285.13894653 111.14430237 288.13894653 C111.80430237 288.13894653 112.46430237 288.13894653 113.14430237 288.13894653 C113.37504456 288.66101685 113.60578674 289.18308716 113.84352112 289.72097778 C114.16965393 290.45703247 114.49578674 291.19308716 114.83180237 291.95144653 C115.19016174 292.76484497 115.54852112 293.57824341 115.91773987 294.41629028 C116.77337183 296.31557524 117.65579946 298.20291701 118.55836487 300.08035278 C119.25059143 301.53248169 119.25059143 301.53248169 119.95680237 303.01394653 C120.61615784 304.37132935 120.61615784 304.37132935 121.28883362 305.75613403 C122.14430237 308.13894653 122.14430237 308.13894653 121.14430237 311.13894653 C120.48430237 311.13894653 119.82430237 311.13894653 119.14430237 311.13894653 C119.14430237 311.79894653 119.14430237 312.45894653 119.14430237 313.13894653 C118.16332581 313.62363403 117.18234924 314.10832153 116.17164612 314.60769653 C114.80811116 315.28426878 113.44485134 315.96139572 112.08180237 316.63894653 C111.36097473 316.99698364 110.64014709 317.35502075 109.8974762 317.72390747 C105.62380144 319.85957909 101.40156595 322.06598596 97.21144104 324.36087036 C90.69620775 327.92440425 84.22230975 330.85788254 77.14430237 333.13894653 C76.40051331 333.40191528 75.65672424 333.66488403 74.89039612 333.93582153 C65.20115579 337.33312226 55.50398986 339.40564094 45.31202698 340.4927063 C41.93721315 340.59426661 41.93721315 340.59426661 39.14430237 342.13894653 C27.99096096 343.8031579 16.44569543 343.29145988 5.20509338 343.26931763 C1.95366287 343.26394134 -1.29763059 343.2692981 -4.54905701 343.27566528 C-6.64476043 343.27500469 -8.74046377 343.27372391 -10.83616638 343.27175903 C-11.79371323 343.27378326 -12.75126007 343.2758075 -13.73782349 343.27789307 C-22.13479824 343.24906897 -30.20390561 342.63709913 -38.37522888 340.67019653 C-41.35381291 340.03226358 -44.33893631 339.62190107 -47.35569763 339.20144653 C-52.83406221 338.37368902 -57.69254328 337.10548939 -62.85569763 335.13894653 C-64.1196418 334.6756723 -65.38400392 334.21353759 -66.64866638 333.75222778 C-73.83318249 331.11377472 -80.9094763 328.36397787 -87.85569763 325.13894653 C-87.85569763 324.47894653 -87.85569763 323.81894653 -87.85569763 323.13894653 C-88.63944763 322.99457153 -89.42319763 322.85019653 -90.23069763 322.70144653 C-92.85569763 322.13894653 -92.85569763 322.13894653 -94.85569763 321.13894653 C-94.85569763 320.47894653 -94.85569763 319.81894653 -94.85569763 319.13894653 C-95.73741638 318.8721106 -96.61913513 318.60527466 -97.52757263 318.33035278 C-109.2084747 314.1488092 -118.36467484 304.85945643 -126.85569763 296.13894653 C-127.45511169 295.5730481 -128.05452576 295.00714966 -128.67210388 294.42410278 C-129.31018982 293.81437622 -129.94827576 293.20464966 -130.60569763 292.57644653 C-131.19866638 292.01828247 -131.79163513 291.46011841 -132.40257263 290.88504028 C-133.85569763 289.13894653 -133.85569763 289.13894653 -134.37132263 286.98660278 C-134.53116638 286.37687622 -134.69101013 285.76714966 -134.85569763 285.13894653 C-135.84569763 284.80894653 -136.83569763 284.47894653 -137.85569763 284.13894653 C-138.18569763 283.14894653 -138.51569763 282.15894653 -138.85569763 281.13894653 C-139.51569763 280.80894653 -140.17569763 280.47894653 -140.85569763 280.13894653 C-141.9015905 278.50068957 -142.88967986 276.82553701 -143.85569763 275.13894653 C-144.60926457 273.92227475 -145.36602723 272.707579 -146.12522888 271.49441528 C-151.97326587 261.97688692 -156.25661566 252.71195058 -159.85569763 242.13894653 C-160.38373882 240.75490554 -160.91502957 239.37210026 -161.44944763 237.99050903 C-162.56538911 235.03768279 -163.38171715 232.19636703 -163.91819763 229.07644653 C-164.41128316 226.2541189 -165.01103715 223.62889475 -165.84788513 220.88113403 C-166.97710163 216.68815182 -167.48840131 212.63562186 -167.91819763 208.32644653 C-168.27121508 203.07329826 -168.27121508 203.07329826 -169.85569763 198.13894653 C-169.95030511 196.66869955 -169.98363918 195.1942648 -169.98509216 193.72097778 C-169.98824432 192.80662964 -169.99139648 191.89228149 -169.99464417 190.95022583 C-169.99261993 189.96062866 -169.9905957 188.97103149 -169.98851013 187.95144653 C-169.98946686 186.93800171 -169.99042358 185.92455688 -169.9914093 184.88040161 C-169.99209059 182.73513731 -169.99023989 180.58987095 -169.98606873 178.4446106 C-169.98071977 175.15257151 -169.98601548 171.86066886 -169.99241638 168.56863403 C-169.99175559 166.48790456 -169.99047441 164.40717518 -169.98851013 162.32644653 C-169.99053436 161.33684937 -169.99255859 160.3472522 -169.99464417 159.32766724 C-169.991492 158.41331909 -169.98833984 157.49897095 -169.98509216 156.55691528 C-169.98429657 155.75020386 -169.98350098 154.94349243 -169.98268127 154.11233521 C-169.85569763 152.13894653 -169.85569763 152.13894653 -168.85569763 150.13894653 C-168.59117294 148.55740347 -168.36988446 146.96849602 -168.17210388 145.37722778 C-168.04899841 144.422677 -167.92589294 143.46812622 -167.79905701 142.48464966 C-167.54762567 140.4822247 -167.29759708 138.47962304 -167.04905701 136.47683716 C-166.36461616 131.18926566 -165.50881705 126.22773051 -163.85569763 121.13894653 C-163.51598938 120.0823584 -163.51598938 120.0823584 -163.16941833 119.00442505 C-157.30663006 101.03513927 -150.27958452 80.06587795 -136.29319763 66.63894653 C-134.74636007 65.15778539 -134.74636007 65.15778539 -133.72679138 63.04910278 C-131.09450701 58.95504881 -127.82465863 55.59793442 -124.48069763 52.07644653 C-123.82069763 51.36939575 -123.16069763 50.66234497 -122.48069763 49.93386841 C-119.140065 46.39026906 -115.8630595 42.94409984 -111.85569763 40.13894653 C-111.19569763 40.13894653 -110.53569763 40.13894653 -109.85569763 40.13894653 C-109.66878357 39.57691528 -109.48186951 39.01488403 -109.28929138 38.43582153 C-107.21150723 35.10683766 -104.18221236 33.41534193 -100.91819763 31.38894653 C-100.28462341 30.9777356 -99.65104919 30.56652466 -98.99827576 30.14285278 C-94.25290226 27.13894653 -94.25290226 27.13894653 -90.85569763 27.13894653 C-90.85569763 26.47894653 -90.85569763 25.81894653 -90.85569763 25.13894653 C-88.54569763 24.47894653 -86.23569763 23.81894653 -83.85569763 23.13894653 C-83.85569763 22.47894653 -83.85569763 21.81894653 -83.85569763 21.13894653 C-67.74796712 13.84450282 -67.74796712 13.84450282 -60.26976013 11.81863403 C-57.45787542 11.02693834 -54.73425694 10.05122076 -51.98069763 9.07644653 C-46.90558534 7.35640203 -41.9495673 6.34720993 -36.64476013 5.63113403 C-33.8303124 5.2198688 -33.8303124 5.2198688 -31.17991638 4.15066528 C-26.51908363 2.73215097 -21.88517331 2.45549841 -17.04319763 2.07644653 C-15.14052943 1.92286224 -13.23815953 1.76551985 -11.33616638 1.60379028 C-10.08162659 1.50505615 -10.08162659 1.50505615 -8.80174255 1.40432739 C-5.75150389 0.98836836 -3.45027784 0.01441925 0 0 Z " fill="#000002" transform="translate(756.8556976318359,196.86105346679688)"/>
<path d="M0 0 C0.00173625 0.77715795 0.0034725 1.55431591 0.00526136 2.3550241 C0.10821785 48.38296828 0.21631483 94.41089791 0.33111694 140.43881415 C0.34488705 145.96148798 0.35861406 151.48416193 0.37231445 157.00683594 C0.37504276 158.10633293 0.37777106 159.20582993 0.38058204 160.33864501 C0.42469557 178.15768384 0.46531594 195.97672902 0.50465261 213.79577896 C0.5450724 232.07036855 0.58922925 250.34494633 0.63687855 268.61951852 C0.66617853 279.90215965 0.69253949 291.18479988 0.71517897 302.46745637 C0.73096797 310.1971403 0.75037636 317.92680977 0.77266841 325.65647766 C0.78543488 330.12065987 0.79656967 334.58483094 0.80341911 339.04902649 C0.80971956 343.13252216 0.8205442 347.21597941 0.8350333 351.299454 C0.83947614 352.77999572 0.84222999 354.26054361 0.84316199 355.7410917 C0.84466729 357.74760848 0.85281874 359.75411703 0.8613348 361.7606163 C0.86532186 363.43518296 0.86532186 363.43518296 0.86938947 365.14357924 C0.98269489 367.62154142 1.31726414 369.63362422 2 372 C2.18601478 373.68696753 2.33810367 375.37785928 2.46484375 377.0703125 C2.58182617 378.53984375 2.58182617 378.53984375 2.70117188 380.0390625 C2.85691683 382.072757 3.01061212 384.10660966 3.16210938 386.140625 C4.6700857 404.92289928 10.90684838 419.50382567 25.421875 432.08203125 C29.02942817 434.76583217 32.76334186 436.53661325 37 438 C36.56744475 443.40694067 35.41778487 446.75366122 32 451 C31.34 451 30.68 451 30 451 C29.34 452.65 28.68 454.3 28 456 C27.34 456 26.68 456 26 456 C25.34 457.32 24.68 458.64 24 460 C23.34 460 22.68 460 22 460 C21.67 460.99 21.34 461.98 21 463 C18.9375 463.6875 18.9375 463.6875 17 464 C17 464.66 17 465.32 17 466 C2.17280986 472.98414901 -9.03049447 476.17831456 -25.4375 476.25 C-27.2019043 476.2809375 -27.2019043 476.2809375 -29.00195312 476.3125 C-35.93617311 476.34350825 -41.61876438 475.75444169 -48 473 C-49.39605469 472.43539062 -49.39605469 472.43539062 -50.8203125 471.859375 C-56.46237381 469.14353532 -61.1645468 466.04196994 -65 461 C-65 460.34 -65 459.68 -65 459 C-65.66 459 -66.32 459 -67 459 C-68.49837161 456.27480633 -69.99053578 453.54657634 -71.47265625 450.8125 C-72.55149891 448.82588437 -73.64543828 446.84743164 -74.75 444.875 C-76.14005234 441.67787962 -76.85181536 438.6194346 -77.53125 435.2109375 C-78.00520184 432.79149974 -78.00520184 432.79149974 -79.0625 429.6875 C-81.71266311 419.26352509 -81.14153974 408.21048751 -81.12025452 397.52325439 C-81.12069133 395.87947662 -81.12156825 394.23569891 -81.12284368 392.59192157 C-81.12506708 388.10400152 -81.12109704 383.61610559 -81.11606562 379.12818861 C-81.1117302 374.27763848 -81.11320973 369.42708961 -81.1139679 364.57653809 C-81.11449117 356.18224009 -81.11136486 347.7879499 -81.10573006 339.39365387 C-81.09758848 327.25704581 -81.09499711 315.12044151 -81.09374207 302.98383102 C-81.09155572 283.29097636 -81.08490695 263.59812585 -81.07543945 243.90527344 C-81.06625454 224.78027365 -81.05917898 205.65527499 -81.05493164 186.53027344 C-81.05466892 185.35057587 -81.05440619 184.1708783 -81.05413551 182.95543233 C-81.05283043 177.03698773 -81.05156673 171.11854312 -81.05032361 165.20009851 C-81.03996399 116.13339614 -81.02235704 67.06669827 -81 18 C-80.38801758 17.86795166 -79.77603516 17.73590332 -79.14550781 17.59985352 C-78.33952148 17.42381592 -77.53353516 17.24777832 -76.703125 17.06640625 C-75.90551758 16.89310791 -75.10791016 16.71980957 -74.28613281 16.54125977 C-71.81762384 15.99037798 -71.81762384 15.99037798 -68.75 14.9375 C-63.22995254 13.55748813 -57.66781401 13.32387509 -52 13 C-52 12.34 -52 11.68 -52 11 C-50.91460937 10.80664062 -49.82921875 10.61328125 -48.7109375 10.4140625 C-47.26558332 10.15127083 -45.82027312 9.88823714 -44.375 9.625 C-43.66214844 9.49867187 -42.94929688 9.37234375 -42.21484375 9.2421875 C-38.98091214 8.64880555 -35.96812879 7.98927108 -32.84375 6.9375 C-29.87327301 5.95822187 -27.23775432 5.60276251 -24.125 5.375 C-22.67480469 5.26285156 -22.67480469 5.26285156 -21.1953125 5.1484375 C-20.47085938 5.09945313 -19.74640625 5.05046875 -19 5 C-19 4.34 -19 3.68 -19 3 C-16.58424393 2.49521515 -14.16755639 1.99602358 -11.75 1.5 C-11.06808594 1.35691406 -10.38617188 1.21382812 -9.68359375 1.06640625 C-6.35366879 0.38748951 -3.41667449 0 0 0 Z " fill="#000002" transform="translate(222,1238)"/>
<path d="M0 0 C0.495 1.485 0.495 1.485 1 3 C2.32305995 3.3720232 3.65864623 3.70056894 5 4 C9.75205736 7.26371725 13.45888924 11.50183228 17 16 C17.70125 16.825 18.4025 17.65 19.125 18.5 C22.85891414 23.47855219 24.91034479 29.16287079 27.1328125 34.92578125 C27.8259636 36.95250935 27.8259636 36.95250935 29 38 C32.44868167 56.32584129 30.96130468 72.75615748 24 90 C23.34 90 22.68 90 22 90 C21.9175 90.515625 21.835 91.03125 21.75 91.5625 C20.47699122 95.69977854 18.75787749 100.0176567 14.875 102.1875 C14.25625 102.455625 13.6375 102.72375 13 103 C12.72414063 103.58910156 12.44828125 104.17820312 12.1640625 104.78515625 C10.70036597 107.57010903 8.86029917 109.18090657 6.5 111.25 C5.7059375 111.95640625 4.911875 112.6628125 4.09375 113.390625 C2 115 2 115 0 115 C0 115.66 0 116.32 0 117 C-1.11375 117.45375 -2.2275 117.9075 -3.375 118.375 C-6.96199008 119.72465986 -6.96199008 119.72465986 -9 122 C-15.38213856 124.94394944 -20.98449997 126.5294717 -28 126 C-28 126.66 -28 127.32 -28 128 C-51.16217025 128.50572424 -68.87869342 127.43186067 -88 113 C-88 112.34 -88 111.68 -88 111 C-88.556875 110.77570313 -89.11375 110.55140625 -89.6875 110.3203125 C-97.25004556 106.00250777 -102.62624361 97.82711484 -106 90 C-106.5053125 89.22785156 -107.010625 88.45570312 -107.53125 87.66015625 C-109.2003907 84.63705834 -109.62591216 82.22466707 -110.0625 78.8125 C-110.46924897 74.40334889 -110.46924897 74.40334889 -113 71 C-113.25878906 68.58911133 -113.25878906 68.58911133 -113.265625 65.58203125 C-113.26820313 64.49212891 -113.27078125 63.40222656 -113.2734375 62.27929688 C-113.26570313 61.13525391 -113.25796875 59.99121094 -113.25 58.8125 C-113.25773437 57.68779297 -113.26546875 56.56308594 -113.2734375 55.40429688 C-113.25961564 49.5265528 -112.98381174 44.53997798 -111 39 C-110.79117187 38.26910156 -110.58234375 37.53820313 -110.3671875 36.78515625 C-109.91145833 35.19010417 -109.45572917 33.59505208 -109 32 C-108.34 32 -107.68 32 -107 32 C-106.92394531 31.14535156 -106.84789062 30.29070312 -106.76953125 29.41015625 C-105.86733219 25.41208628 -104.07259447 22.67741233 -101.6875 19.4375 C-101.29626953 18.88642578 -100.90503906 18.33535156 -100.50195312 17.76757812 C-96.44101465 12.09034574 -92.55018266 7.22296507 -87 3 C-86.34 3 -85.68 3 -85 3 C-85 2.34 -85 1.68 -85 1 C-83.56705502 0.15885829 -82.12845595 -0.67265687 -80.6875 -1.5 C-79.88699219 -1.9640625 -79.08648437 -2.428125 -78.26171875 -2.90625 C-76 -4 -76 -4 -73 -4 C-73 -4.66 -73 -5.32 -73 -6 C-72.33613281 -6.19335938 -71.67226563 -6.38671875 -70.98828125 -6.5859375 C-65.65824933 -8.11732347 -65.65824933 -8.11732347 -60.5 -10.125 C-40.70985003 -17.05155249 -17.11985629 -10.60734099 0 0 Z " fill="#000002" transform="translate(507,1122)"/>
<path d="M0 0 C7.48334652 6.30476696 12.46984524 13.44427401 16.13232422 22.55517578 C16.44556641 23.29767578 16.75880859 24.04017578 17.08154297 24.80517578 C23.46384456 40.74536317 22.44212384 55.90620325 16.13232422 71.55517578 C9.86829013 86.10929653 -1.48623 97.31071678 -16.11767578 103.30517578 C-25.75590073 106.74902267 -35.58780824 109.25211595 -45.86767578 108.55517578 C-46.19767578 108.22517578 -46.52767578 107.89517578 -46.86767578 107.55517578 C-48.72351866 107.24234577 -50.58040311 106.93464153 -52.44165039 106.65576172 C-68.75599569 104.17009595 -81.41359358 97.50856298 -91.86767578 84.55517578 C-93.16705078 83.22486328 -93.16705078 83.22486328 -94.49267578 81.86767578 C-98.33568223 77.26367796 -99.93623023 71.13942538 -101.86767578 65.55517578 C-102.22990234 64.58708984 -102.59212891 63.61900391 -102.96533203 62.62158203 C-106.93119273 49.14452295 -105.30685035 32.9605912 -98.86767578 20.55517578 C-92.09529267 8.66950743 -84.62901413 -1.58481765 -71.86767578 -7.44482422 C-70.92794922 -7.88697266 -69.98822266 -8.32912109 -69.02001953 -8.78466797 C-45.62515707 -19.19915513 -20.10924514 -15.55640689 0 0 Z " fill="#000002" transform="translate(815.86767578125,321.44482421875)"/>
</svg>
